# xmcd CD database file
#
# Track frame offsets:
#	150
#	19278
#	37930
#	57918
#	78304
#	100177
#	121239
#	137891
#	157956
#	178988
#	197650
#	211692
#	218728
#	236387
#	269941
#
# Disc length: 3868 seconds
#
# Revision: 0
# Processed by: cddbd v1.5.2PL0 Copyright (c) Steve Scherf et al.
# Submitted via: CDex 1.51
#
DISCID=d10f1a0f
DTITLE=Shania Twain - THE WOMAN IN ME (1995)
DYEAR=1995
DGENRE=Country
TTITLE0=Home Ain't Where His Heart Is
TTITLE1=Any Man Of Mine
TTITLE2=Whose Bed Have Your Boots Been
TTITLE3=(If You're Not In It For Love)
TTITLE4=The Woman In Me (Needs The Man
TTITLE5=Is There Life After Love-
TTITLE6=If It Don't Take Two
TTITLE7=You Win My Love
TTITLE8=Raining On Our Love
TTITLE9=Leaving Is The Only Way Out
TTITLE10=No One Needs To Know
TTITLE11=God Bless The Child
TTITLE12=You Win My Love (Remix Edit)
TTITLE13=Medley (Live Mix)
TTITLE14=(If You're Not In It For Love)
EXTD=YEAR: 1995
EXTT0=
EXTT1=
EXTT2=
EXTT3=
EXTT4=
EXTT5=
EXTT6=
EXTT7=
EXTT8=
EXTT9=
EXTT10=
EXTT11=
EXTT12=
EXTT13=
EXTT14=
PLAYORDER=
